<svg width="80" height="80" viewBox="0 0 80 80" fill="none" xmlns="http://www.w3.org/2000/svg">
<path d="M73.0398 6.38889L44.3921 27.5862L49.7194 15.0939L73.0398 6.38889Z" fill="#E17726" stroke="#E17726" stroke-width="0.25" stroke-linecap="round" stroke-linejoin="round"/>
<path d="M6.96021 6.38889L35.3529 27.784L30.2808 15.0939L6.96021 6.38889Z" fill="#E27625" stroke="#E27625" stroke-width="0.25" stroke-linecap="round" stroke-linejoin="round"/>
<path d="M62.7249 55.5381L55.1025 67.1825L71.424 71.6764L76.0996 55.7927L62.7249 55.5381Z" fill="#E27625" stroke="#E27625" stroke-width="0.25" stroke-linecap="round" stroke-linejoin="round"/>
<path d="M3.92798 55.7927L8.57505 71.6764L24.8683 67.1825L17.2742 55.5381L3.92798 55.7927Z" fill="#E27625" stroke="#E27625" stroke-width="0.25" stroke-linecap="round" stroke-linejoin="round"/>
<path d="M23.9897 35.8672L19.4561 42.7069L35.6075 43.4418L35.0692 26.06L23.9897 35.8672Z" fill="#E27625" stroke="#E27625" stroke-width="0.25" stroke-linecap="round" stroke-linejoin="round"/>
<path d="M56.0092 35.8674L44.76 25.8623L44.3916 43.442L60.543 42.7071L56.0092 35.8674Z" fill="#E27625" stroke="#E27625" stroke-width="0.25" stroke-linecap="round" stroke-linejoin="round"/>
<path d="M24.8687 67.1825L34.6444 62.4627L26.2288 55.9056L24.8687 67.1825Z" fill="#E27625" stroke="#E27625" stroke-width="0.25" stroke-linecap="round" stroke-linejoin="round"/>
<path d="M45.3555 62.4627L55.1029 67.1825L53.7711 55.9056L45.3555 62.4627Z" fill="#E27625" stroke="#E27625" stroke-width="0.25" stroke-linecap="round" stroke-linejoin="round"/>
<path d="M55.1029 67.1829L45.3555 62.4631L46.1488 68.7939L46.0637 71.479L55.1029 67.1829Z" fill="#D5BFB2" stroke="#D5BFB2" stroke-width="0.25" stroke-linecap="round" stroke-linejoin="round"/>
<path d="M24.8687 67.1829L33.9362 71.479L33.8795 68.7939L34.6444 62.4631L24.8687 67.1829Z" fill="#D5BFB2" stroke="#D5BFB2" stroke-width="0.25" stroke-linecap="round" stroke-linejoin="round"/>
<path d="M34.1059 51.7228L26.0017 49.3488L31.7255 46.7203L34.1059 51.7228Z" fill="#233447" stroke="#233447" stroke-width="0.25" stroke-linecap="round" stroke-linejoin="round"/>
<path d="M45.8938 51.7228L48.2741 46.7203L54.0263 49.3488L45.8938 51.7228Z" fill="#233447" stroke="#233447" stroke-width="0.25" stroke-linecap="round" stroke-linejoin="round"/>
<path d="M24.8684 67.1825L26.2853 55.5381L17.2744 55.7927L24.8684 67.1825Z" fill="#CC6228" stroke="#CC6228" stroke-width="0.25" stroke-linecap="round" stroke-linejoin="round"/>
<path d="M53.7141 55.5381L55.1026 67.1825L62.725 55.7927L53.7141 55.5381Z" fill="#CC6228" stroke="#CC6228" stroke-width="0.25" stroke-linecap="round" stroke-linejoin="round"/>
<path d="M60.543 42.7067L44.3916 43.4415L45.8933 51.7228L48.2737 46.7201L54.0258 49.3486L60.543 42.7067Z" fill="#CC6228" stroke="#CC6228" stroke-width="0.25" stroke-linecap="round" stroke-linejoin="round"/>
<path d="M26.0016 49.3486L31.7255 46.7201L34.1058 51.7228L35.6075 43.4415L19.4561 42.7067L26.0016 49.3486Z" fill="#CC6228" stroke="#CC6228" stroke-width="0.25" stroke-linecap="round" stroke-linejoin="round"/>
<path d="M19.4568 42.7067L26.2291 55.9056L26.0023 49.3486L19.4568 42.7067Z" fill="#E27525" stroke="#E27525" stroke-width="0.25" stroke-linecap="round" stroke-linejoin="round"/>
<path d="M54.0265 49.3486L53.7715 55.9056L60.5438 42.7067L54.0265 49.3486Z" fill="#E27525" stroke="#E27525" stroke-width="0.25" stroke-linecap="round" stroke-linejoin="round"/>
<path d="M35.6084 43.4415L34.1064 51.7228L36.0049 61.5016L36.4301 48.6137L35.6084 43.4415Z" fill="#E27525" stroke="#E27525" stroke-width="0.25" stroke-linecap="round" stroke-linejoin="round"/>
<path d="M44.3921 43.4415L43.5986 48.5856L43.9954 61.5016L45.8939 51.7228L44.3921 43.4415Z" fill="#E27525" stroke="#E27525" stroke-width="0.25" stroke-linecap="round" stroke-linejoin="round"/>
<path d="M45.8939 51.723L43.9954 61.5019L45.3555 62.4629L53.7714 55.9059L54.0263 49.3488L45.8939 51.723Z" fill="#F5841F" stroke="#F5841F" stroke-width="0.25" stroke-linecap="round" stroke-linejoin="round"/>
<path d="M26.0017 49.3488L26.2286 55.9059L34.6442 62.4629L36.0043 61.5019L34.1059 51.723L26.0017 49.3488Z" fill="#F5841F" stroke="#F5841F" stroke-width="0.25" stroke-linecap="round" stroke-linejoin="round"/>
<path d="M46.064 71.4788L46.1488 68.7938L45.4122 68.1719H34.588L33.8795 68.7938L33.9362 71.4788L24.8687 67.1827L28.0423 69.7829L34.4745 74.2203H45.4971L51.9577 69.7829L55.103 67.1827L46.064 71.4788Z" fill="#C0AC9D" stroke="#C0AC9D" stroke-width="0.25" stroke-linecap="round" stroke-linejoin="round"/>
<path d="M45.3552 62.4627L43.995 61.5019H36.0043L34.6443 62.4627L33.8792 68.7937L34.5876 68.1719H45.4119L46.1487 68.7937L45.3552 62.4627Z" fill="#161616" stroke="#161616" stroke-width="0.25" stroke-linecap="round" stroke-linejoin="round"/>
<path d="M74.258 28.971L76.6666 17.2702L73.0396 6.38889L45.3555 26.8797L56.0096 35.8672L71.056 40.2481L74.3714 36.3761L72.9264 35.3302L75.2214 33.2389L73.4647 31.8822L75.7599 30.1298L74.258 28.971Z" fill="#763E1A" stroke="#763E1A" stroke-width="0.25" stroke-linecap="round" stroke-linejoin="round"/>
<path d="M3.33325 17.2702L5.77014 28.971L4.21168 30.1298L6.53521 31.8822L4.77839 33.2389L7.07359 35.3302L5.62846 36.3761L8.94377 40.2481L23.9903 35.8672L34.6444 26.8797L6.96026 6.38889L3.33325 17.2702Z" fill="#763E1A" stroke="#763E1A" stroke-width="0.25" stroke-linecap="round" stroke-linejoin="round"/>
<path d="M71.0564 40.2479L56.01 35.8672L60.5438 42.7069L53.7715 55.9056L62.7256 55.7926H76.1002L71.0564 40.2479Z" fill="#F5841F" stroke="#F5841F" stroke-width="0.25" stroke-linecap="round" stroke-linejoin="round"/>
<path d="M23.9897 35.8672L8.94343 40.2479L3.92798 55.7926H17.2742L26.2283 55.9056L19.4561 42.7069L23.9897 35.8672Z" fill="#F5841F" stroke="#F5841F" stroke-width="0.25" stroke-linecap="round" stroke-linejoin="round"/>
<path d="M44.3918 43.4418L45.3553 26.8795L49.7189 15.0939H30.2805L34.6442 26.8795L35.6076 43.4418L35.976 48.6421L36.0043 61.5019H43.9951L44.0234 48.6421L44.3918 43.4418Z" fill="#F5841F" stroke="#F5841F" stroke-width="0.25" stroke-linecap="round" stroke-linejoin="round"/>
</svg>
